<svg id="Composant_11_1" data-name="Composant 11 – 1" xmlns="http://www.w3.org/2000/svg" xmlns:xlink="http://www.w3.org/1999/xlink" width="45.212" height="82.032" viewBox="0 0 45.212 82.032">
  <defs>
    <linearGradient id="linear-gradient" x1="0.5" y1="0.354" x2="0.5" y2="2.258" gradientUnits="objectBoundingBox">
      <stop offset="0" stop-color="#adc2fc"/>
      <stop offset="1" stop-color="#fff"/>
    </linearGradient>
    <linearGradient id="linear-gradient-2" x1="-0.323" y1="0.679" x2="-0.394" y2="-0.464" xlink:href="#linear-gradient"/>
    <linearGradient id="linear-gradient-4" x1="0.5" y1="0.438" x2="0.5" y2="-0.24" xlink:href="#linear-gradient"/>
  </defs>
  <path id="Tracé_253" data-name="Tracé 253" d="M409.231,445a19.235,19.235,0,0,0-3.9,3.9,10.564,10.564,0,0,0-2.484,5.323c-.114,1.063-.278,2.582.71,3.549,1.278,1.251,3.762.868,3.9.355.094-.341-.829-.795-.71-1.065.106-.24,1.119.307,1.419,0,.409-.418-.984-1.876-1.242-3.371-.22-1.273.291-3.1,3.194-5.678v14.9a3.813,3.813,0,0,0-2.484,1.774,3.531,3.531,0,0,0,.355,3.9c1.317,1.366,4.8.98,8.162-1.774q-.177-5.146-.355-10.291a1.774,1.774,0,0,1,2.129,0v10.291a6.073,6.073,0,0,0,4.613,2.484c1.753-.017,4.039-.981,4.259-2.484.175-1.2-1.006-2.413-1.419-2.839a5.733,5.733,0,0,0-1.419-1.065q-.177-7.63-.355-15.26a10.192,10.192,0,0,1,2.129,2.129c.918,1.242,1.562,2.114,1.42,3.194a6.8,6.8,0,0,1-1.42,2.839c-.174.217-.453.539-.355.71.193.336,1.643-.264,1.774,0s-1.163.85-1.065,1.419c.086.494,1.2.887,2.129.71,1.583-.3,2.372-2.212,2.484-2.484,1.674-4.055-5.673-10.682-6.033-11A37.806,37.806,0,0,1,409.231,445Z" transform="translate(-394.005 -387.333)" fill="url(#linear-gradient)"/>
  <rect id="Rectangle_112" data-name="Rectangle 112" width="13.13" height="30.164" rx="6.565" transform="translate(9.015)" fill="url(#linear-gradient-2)"/>
  <rect id="Rectangle_113" data-name="Rectangle 113" width="13.13" height="30.164" rx="6.565" transform="translate(24.629)" fill="url(#linear-gradient-2)"/>
  <path id="Tracé_252" data-name="Tracé 252" d="M399.906,337.478a22.845,22.845,0,0,0-11.711,6.033,21.641,21.641,0,0,0-7.1,11.356c-.2.868-1.714,7.97,1.774,13.84,6.419,10.8,27.1,12.909,36.907,3.549a19.764,19.764,0,0,0,6.033-14.2c-.064-7.837-5.062-12.862-6.388-14.2C418.987,343.427,410.951,335.613,399.906,337.478Z" transform="translate(-380.6 -317.783)" fill="url(#linear-gradient-4)"/>
</svg>
